<svg width="161" height="33" viewBox="0 0 161 33" fill="none" xmlns="http://www.w3.org/2000/svg">
<path d="M0 16.5736C0 7.75304 7.25158 0.602539 16.0722 0.602539V0.602539C24.7818 0.602539 31.9422 7.6631 31.9422 16.3727V16.3727C31.9422 25.0824 24.8816 32.1429 16.172 32.1429H0V16.5736Z" fill="#3B62F6"/>
<path d="M45.603 11.8527C45.603 5.30665 40.2459 0 33.6998 0V0C27.2092 0 21.8975 5.26169 21.8975 11.7523V11.7523C21.8975 18.2429 27.1592 23.5046 33.6498 23.5046H45.603V11.8527Z" fill="#58CDFF"/>
<path opacity="0.5" fill-rule="evenodd" clip-rule="evenodd" d="M30.4884 23.0747C31.4215 21.0611 31.9422 18.8174 31.9422 16.4521C31.9422 11.1401 29.2786 6.44144 25.2245 3.58398C23.1676 5.69861 21.8975 8.57862 21.8975 11.7525C21.8975 17.1479 25.5332 21.6941 30.4884 23.0747Z" fill="#3B62F6"/>
<path d="M58.2784 15.2959H61.5176C61.471 14.5191 61.2846 13.851 60.9583 13.2918C60.6321 12.7169 60.2049 12.2431 59.6766 11.8702C59.164 11.4818 58.5736 11.1944 57.9056 11.008C57.253 10.8216 56.5695 10.7283 55.8548 10.7283C54.8761 10.7283 54.0061 10.8915 53.2448 11.2177C52.4835 11.544 51.8388 12.0023 51.3106 12.5926C50.7824 13.1675 50.3784 13.8588 50.0988 14.6667C49.8347 15.459 49.7026 16.3212 49.7026 17.2534C49.7026 18.1545 49.8502 18.9856 50.1454 19.7469C50.4406 20.4926 50.8523 21.1373 51.3805 21.6811C51.9087 22.2249 52.5457 22.6521 53.2914 22.9628C54.0527 23.258 54.8838 23.4056 55.7849 23.4056C57.3851 23.4056 58.6979 22.9861 59.7232 22.1472C60.7486 21.3082 61.37 20.0887 61.5875 18.4885H58.3949C58.2862 19.2342 58.0143 19.8323 57.5793 20.2829C57.1598 20.7179 56.5539 20.9354 55.7616 20.9354C55.2489 20.9354 54.8139 20.8189 54.4566 20.5858C54.0993 20.3528 53.8119 20.0576 53.5944 19.7003C53.3924 19.3274 53.2448 18.9157 53.1516 18.4652C53.0584 18.0146 53.0118 17.5719 53.0118 17.1369C53.0118 16.6863 53.0584 16.2358 53.1516 15.7853C53.2448 15.3192 53.4002 14.8997 53.6177 14.5269C53.8507 14.1385 54.1459 13.8277 54.5032 13.5947C54.8605 13.3461 55.3033 13.2218 55.8315 13.2218C57.2453 13.2218 58.0609 13.9132 58.2784 15.2959Z" fill="white"/>
<path d="M63.3171 14.7599C63.3637 13.9831 63.5579 13.3384 63.8997 12.8257C64.2415 12.313 64.6765 11.9013 65.2047 11.5906C65.7329 11.2799 66.3233 11.0624 66.9758 10.9381C67.6438 10.7983 68.3119 10.7283 68.9799 10.7283C69.5858 10.7283 70.1995 10.7749 70.8209 10.8682C71.4424 10.9458 72.0094 11.109 72.5221 11.3575C73.0348 11.6061 73.4542 11.9557 73.7805 12.4062C74.1067 12.8412 74.2699 13.4238 74.2699 14.154V20.4227C74.2699 20.9664 74.3009 21.4869 74.3631 21.984C74.4252 22.4812 74.534 22.8541 74.6893 23.1026H71.3336C71.2715 22.9162 71.2171 22.7298 71.1705 22.5433C71.1394 22.3414 71.1161 22.1394 71.1006 21.9374C70.5723 22.4812 69.9509 22.8618 69.2363 23.0793C68.5216 23.2968 67.7914 23.4056 67.0457 23.4056C66.4709 23.4056 65.9349 23.3357 65.4378 23.1958C64.9406 23.056 64.5056 22.8385 64.1327 22.5433C63.7599 22.2482 63.4647 21.8753 63.2472 21.4248C63.0452 20.9742 62.9443 20.4382 62.9443 19.8168C62.9443 19.1332 63.0608 18.5739 63.2938 18.1389C63.5424 17.6884 63.8531 17.3311 64.226 17.067C64.6144 16.8028 65.0494 16.6087 65.531 16.4844C66.0281 16.3445 66.5253 16.2358 67.0224 16.1581C67.5196 16.0804 68.0089 16.0183 68.4905 15.9717C68.9722 15.9251 69.3994 15.8552 69.7723 15.7619C70.1451 15.6687 70.4403 15.5367 70.6578 15.3658C70.8753 15.1794 70.9763 14.9152 70.9607 14.5735C70.9607 14.2161 70.8986 13.9365 70.7743 13.7345C70.6656 13.517 70.5102 13.3539 70.3082 13.2451C70.1218 13.1209 69.8965 13.0432 69.6324 13.0121C69.3839 12.9655 69.112 12.9422 68.8168 12.9422C68.1643 12.9422 67.6516 13.082 67.2788 13.3617C66.9059 13.6413 66.6884 14.1074 66.6262 14.7599H63.3171ZM70.9607 17.2068C70.8209 17.3311 70.6423 17.432 70.4248 17.5097C70.2228 17.5719 69.9975 17.6262 69.7489 17.6729C69.5159 17.7195 69.2673 17.7583 69.0032 17.7894C68.7391 17.8204 68.475 17.8593 68.2109 17.9059C67.9623 17.9525 67.7138 18.0146 67.4652 18.0923C67.2321 18.17 67.0224 18.2788 66.836 18.4186C66.6651 18.5429 66.5253 18.706 66.4165 18.908C66.3078 19.1099 66.2534 19.3663 66.2534 19.677C66.2534 19.9722 66.3078 20.2207 66.4165 20.4227C66.5253 20.6247 66.6729 20.7878 66.8593 20.9121C67.0457 21.0208 67.2632 21.0985 67.5118 21.1451C67.7604 21.1917 68.0167 21.215 68.2808 21.215C68.9333 21.215 69.4382 21.1063 69.7956 20.8888C70.1529 20.6713 70.417 20.4149 70.5879 20.1197C70.7588 19.809 70.8598 19.4983 70.8908 19.1876C70.9374 18.8769 70.9607 18.6283 70.9607 18.4419V17.2068Z" fill="white"/>
<path d="M76.8384 11.0546V23.1026H80.1475V17.6729C80.1475 17.1291 80.2019 16.6242 80.3106 16.1581C80.4194 15.692 80.598 15.2881 80.8466 14.9463C81.1107 14.589 81.4525 14.3093 81.872 14.1074C82.2915 13.9054 82.8041 13.8044 83.41 13.8044C83.612 13.8044 83.8217 13.82 84.0392 13.851C84.2567 13.8666 84.4432 13.8899 84.5985 13.921V10.8449C84.3344 10.7672 84.0936 10.7283 83.8761 10.7283C83.4566 10.7283 83.0527 10.7905 82.6643 10.9148C82.2759 11.0391 81.9108 11.2177 81.569 11.4508C81.2272 11.6683 80.9243 11.9401 80.6602 12.2664C80.3961 12.5771 80.1863 12.9189 80.031 13.2918H79.9844V11.0546H76.8384Z" fill="white"/>
<path d="M93.5959 15.7853H88.2128C88.2283 15.5522 88.2749 15.2881 88.3526 14.9929C88.4458 14.6977 88.5934 14.4181 88.7954 14.154C89.0129 13.8899 89.2925 13.6724 89.6343 13.5015C89.9916 13.3151 90.4344 13.2218 90.9626 13.2218C91.7705 13.2218 92.3686 13.4393 92.757 13.8743C93.1609 14.3093 93.4406 14.9463 93.5959 15.7853ZM88.2128 17.8826H96.9051C96.9672 16.9504 96.8895 16.0571 96.672 15.2027C96.4545 14.3482 96.0972 13.5869 95.6001 12.9189C95.1185 12.2509 94.497 11.7226 93.7358 11.3342C92.9745 10.9303 92.0812 10.7283 91.0558 10.7283C90.1392 10.7283 89.3003 10.8915 88.539 11.2177C87.7933 11.544 87.1486 11.9945 86.6048 12.5693C86.0611 13.1286 85.6416 13.7967 85.3464 14.5735C85.0512 15.3502 84.9037 16.1892 84.9037 17.0903C84.9037 18.0224 85.0435 18.8769 85.3231 19.6537C85.6183 20.4305 86.03 21.0985 86.5582 21.6578C87.0864 22.2171 87.7312 22.6521 88.4924 22.9628C89.2537 23.258 90.1082 23.4056 91.0558 23.4056C92.423 23.4056 93.5882 23.0949 94.5514 22.4734C95.5146 21.852 96.2293 20.8189 96.6953 19.374H93.7824C93.6736 19.7469 93.3784 20.1042 92.8968 20.446C92.4152 20.7723 91.8404 20.9354 91.1724 20.9354C90.2402 20.9354 89.5256 20.6946 89.0284 20.213C88.5313 19.7314 88.2594 18.9546 88.2128 17.8826Z" fill="white"/>
<path d="M99.0075 11.0779V27.5303H100.476V20.8189H100.522C100.678 21.2539 100.895 21.6345 101.175 21.9607C101.47 22.287 101.804 22.5589 102.177 22.7764C102.55 22.9939 102.954 23.157 103.389 23.2658C103.824 23.3745 104.259 23.4289 104.694 23.4289C105.61 23.4289 106.403 23.2658 107.071 22.9395C107.754 22.5977 108.321 22.1394 108.772 21.5646C109.222 20.9742 109.556 20.2984 109.774 19.5372C109.991 18.7604 110.1 17.9447 110.1 17.0903C110.1 16.2358 109.991 15.4279 109.774 14.6667C109.556 13.8899 109.222 13.2141 108.772 12.6392C108.321 12.0489 107.754 11.5828 107.071 11.241C106.403 10.8992 105.61 10.7283 104.694 10.7283C103.715 10.7283 102.837 10.9614 102.06 11.4275C101.299 11.878 100.748 12.5227 100.406 13.3617H100.359V11.0779H99.0075ZM108.632 17.0903C108.632 17.7117 108.554 18.3331 108.399 18.9546C108.259 19.5605 108.026 20.1042 107.7 20.5858C107.389 21.0674 106.985 21.4636 106.488 21.7743C105.991 22.0695 105.393 22.2171 104.694 22.2171C103.917 22.2171 103.257 22.0695 102.713 21.7743C102.185 21.4636 101.75 21.0674 101.408 20.5858C101.082 20.1042 100.841 19.5605 100.685 18.9546C100.546 18.3331 100.476 17.7117 100.476 17.0903C100.476 16.4067 100.538 15.7542 100.662 15.1327C100.802 14.5113 101.035 13.9676 101.361 13.5015C101.687 13.0354 102.122 12.6626 102.666 12.3829C103.21 12.1033 103.886 11.9634 104.694 11.9634C105.393 11.9634 105.991 12.1188 106.488 12.4295C106.985 12.7247 107.389 13.1131 107.7 13.5947C108.026 14.0763 108.259 14.6278 108.399 15.2493C108.554 15.8552 108.632 16.4688 108.632 17.0903Z" fill="white"/>
<path d="M112.249 14.7599H113.717C113.748 13.7811 114.059 13.0743 114.649 12.6392C115.24 12.1887 116.001 11.9634 116.933 11.9634C117.368 11.9634 117.772 12.0023 118.145 12.08C118.533 12.1421 118.867 12.2664 119.147 12.4528C119.442 12.6392 119.667 12.8956 119.823 13.2218C119.994 13.5326 120.079 13.9365 120.079 14.4336C120.079 14.7599 120.033 15.024 119.939 15.226C119.862 15.4279 119.745 15.5911 119.59 15.7153C119.434 15.8241 119.24 15.9018 119.007 15.9484C118.774 15.995 118.502 16.0338 118.192 16.0649C117.399 16.1581 116.615 16.2591 115.838 16.3678C115.077 16.4611 114.385 16.632 113.764 16.8805C113.158 17.1291 112.669 17.4942 112.296 17.9758C111.923 18.4419 111.736 19.0944 111.736 19.9333C111.736 20.5392 111.837 21.0674 112.039 21.518C112.257 21.953 112.544 22.3181 112.902 22.6132C113.274 22.8929 113.702 23.0949 114.183 23.2191C114.68 23.359 115.209 23.4289 115.768 23.4289C116.358 23.4289 116.863 23.3745 117.283 23.2658C117.718 23.157 118.098 23.0016 118.425 22.7997C118.766 22.5977 119.069 22.3491 119.333 22.054C119.613 21.7432 119.885 21.3937 120.149 21.0053H120.196C120.196 21.316 120.211 21.6034 120.242 21.8675C120.289 22.1161 120.374 22.3336 120.499 22.52C120.623 22.7065 120.794 22.8541 121.011 22.9628C121.244 23.056 121.547 23.1026 121.92 23.1026C122.122 23.1026 122.285 23.0949 122.41 23.0793C122.549 23.0638 122.705 23.0405 122.876 23.0094V21.7743C122.736 21.8365 122.58 21.8675 122.41 21.8675C121.835 21.8675 121.547 21.5723 121.547 20.982V14.5968C121.547 13.7889 121.415 13.1364 121.151 12.6392C120.887 12.1266 120.545 11.7304 120.126 11.4508C119.706 11.1711 119.232 10.9847 118.704 10.8915C118.176 10.7827 117.648 10.7283 117.12 10.7283C116.42 10.7283 115.784 10.806 115.209 10.9614C114.634 11.1167 114.129 11.3575 113.694 11.6838C113.274 12.01 112.94 12.4295 112.692 12.9422C112.443 13.4549 112.296 14.0608 112.249 14.7599ZM120.079 16.531V18.4419C120.079 19.0322 119.963 19.5605 119.73 20.0265C119.512 20.4926 119.209 20.8888 118.821 21.215C118.448 21.5413 118.005 21.7898 117.492 21.9607C116.98 22.1316 116.444 22.2171 115.885 22.2171C115.543 22.2171 115.209 22.1627 114.882 22.054C114.556 21.9452 114.269 21.7898 114.02 21.5879C113.772 21.3704 113.57 21.1218 113.414 20.8422C113.274 20.547 113.205 20.213 113.205 19.8401C113.205 19.2497 113.375 18.7992 113.717 18.4885C114.075 18.1622 114.525 17.9137 115.069 17.7428C115.613 17.5719 116.211 17.4476 116.863 17.3699C117.531 17.2767 118.176 17.1757 118.797 17.067C118.999 17.0359 119.232 16.9815 119.497 16.9038C119.761 16.8262 119.939 16.7019 120.033 16.531H120.079Z" fill="white"/>
<path d="M126.804 11.0779V7.46582H125.335V11.0779H123.238V12.313H125.335V20.5392C125.32 21.5646 125.506 22.2715 125.895 22.6599C126.283 23.0327 126.967 23.2191 127.945 23.2191C128.163 23.2191 128.38 23.2114 128.598 23.1958C128.815 23.1803 129.033 23.1725 129.25 23.1725V21.9374C128.831 21.984 128.412 22.0073 127.992 22.0073C127.464 21.9763 127.13 21.8287 126.99 21.5646C126.866 21.2849 126.804 20.9043 126.804 20.4227V12.313H129.25V11.0779H126.804Z" fill="white"/>
<path d="M131.369 11.0779V23.1026H132.837V16.6941C132.837 16.0571 132.946 15.4745 133.163 14.9463C133.381 14.4026 133.684 13.9365 134.072 13.5481C134.476 13.1597 134.95 12.8645 135.494 12.6626C136.037 12.4451 136.643 12.3518 137.311 12.3829V10.9148C136.224 10.8682 135.284 11.109 134.491 11.6372C133.715 12.1654 133.14 12.9189 132.767 13.8977H132.72V11.0779H131.369Z" fill="white"/>
<path d="M143.39 11.9634C144.089 11.9634 144.703 12.111 145.231 12.4062C145.759 12.7014 146.194 13.0898 146.536 13.5714C146.893 14.053 147.157 14.6045 147.328 15.226C147.515 15.8319 147.608 16.4533 147.608 17.0903C147.608 17.7272 147.515 18.3564 147.328 18.9779C147.157 19.5838 146.893 20.1275 146.536 20.6091C146.194 21.0907 145.759 21.4791 145.231 21.7743C144.703 22.0695 144.089 22.2171 143.39 22.2171C142.691 22.2171 142.077 22.0695 141.549 21.7743C141.021 21.4791 140.578 21.0907 140.221 20.6091C139.879 20.1275 139.615 19.5838 139.428 18.9779C139.257 18.3564 139.172 17.7272 139.172 17.0903C139.172 16.4533 139.257 15.8319 139.428 15.226C139.615 14.6045 139.879 14.053 140.221 13.5714C140.578 13.0898 141.021 12.7014 141.549 12.4062C142.077 12.111 142.691 11.9634 143.39 11.9634ZM143.39 10.7283C142.473 10.7283 141.658 10.8992 140.943 11.241C140.244 11.5828 139.654 12.0411 139.172 12.6159C138.69 13.1908 138.325 13.8666 138.077 14.6434C137.828 15.4046 137.704 16.2203 137.704 17.0903C137.704 17.9603 137.828 18.7837 138.077 19.5605C138.325 20.3217 138.69 20.9898 139.172 21.5646C139.654 22.1394 140.244 22.5977 140.943 22.9395C141.658 23.2658 142.473 23.4289 143.39 23.4289C144.307 23.4289 145.114 23.2658 145.814 22.9395C146.528 22.5977 147.126 22.1394 147.608 21.5646C148.09 20.9898 148.455 20.3217 148.703 19.5605C148.952 18.7837 149.076 17.9603 149.076 17.0903C149.076 16.2203 148.952 15.4046 148.703 14.6434C148.455 13.8666 148.09 13.1908 147.608 12.6159C147.126 12.0411 146.528 11.5828 145.814 11.241C145.114 10.8992 144.307 10.7283 143.39 10.7283Z" fill="white"/>
<path d="M151.236 11.0779V23.1026H152.704V16.0882C152.719 15.4978 152.812 14.9541 152.983 14.4569C153.17 13.9443 153.418 13.5093 153.729 13.1519C154.055 12.7791 154.444 12.4917 154.894 12.2897C155.36 12.0722 155.889 11.9634 156.479 11.9634C157.069 11.9634 157.559 12.0567 157.947 12.2431C158.351 12.4295 158.669 12.6859 158.902 13.0121C159.136 13.3384 159.299 13.7268 159.392 14.1773C159.485 14.6123 159.532 15.0861 159.532 15.5988V23.1026H161V15.3658C161 14.6511 160.93 14.0064 160.79 13.4316C160.65 12.8568 160.409 12.3751 160.068 11.9867C159.726 11.5828 159.268 11.2721 158.693 11.0546C158.133 10.8371 157.434 10.7283 156.595 10.7283C155.741 10.7283 154.956 10.9536 154.242 11.4042C153.527 11.8392 153.03 12.4217 152.75 13.1519H152.704V11.0779H151.236Z" fill="white"/>
</svg>
